<svg width="50" height="50" viewBox="0 0 50 50" fill="none" xmlns="http://www.w3.org/2000/svg">
<g clip-path="url(#clip0)">
<path d="M44.3657 5.62966C36.9017 -1.85499 24.7834 -1.87188 17.2988 5.59211C10.0769 12.794 9.77131 24.3939 16.6039 31.9661L15.1423 33.4277C13.9614 32.2467 12.0467 32.2465 10.8656 33.4273C10.8655 33.4275 10.8654 33.4276 10.8653 33.4277L0.885904 43.4071C-0.295112 44.588 -0.295364 46.5027 0.885526 47.6837C0.885652 47.6838 0.885778 47.684 0.885904 47.6841L2.31124 49.1094C3.49213 50.2899 5.40635 50.2899 6.58724 49.1094L16.5666 39.1301C17.7476 37.9492 17.7479 36.0345 16.567 34.8534C16.5668 34.8533 16.5667 34.8532 16.5666 34.8531L18.0282 33.3914C25.8706 40.4787 37.9733 39.8664 45.0606 32.0242C51.9062 24.4491 51.6004 12.8341 44.3657 5.62966ZM15.1423 37.7037L5.16291 47.6831C4.76928 48.0766 4.13121 48.0766 3.73758 47.6831L2.31225 46.2567C1.91937 45.8632 1.91937 45.2259 2.31225 44.8324L12.2916 34.8531C12.6903 34.4719 13.3183 34.4719 13.7169 34.8531L15.1423 36.2794C15.5351 36.6729 15.5351 37.3102 15.1423 37.7037ZM42.9413 31.2897C36.2491 37.9817 25.399 37.9816 18.707 31.2893C12.015 24.5971 12.0152 13.747 18.7074 7.05499C25.3995 0.363149 36.2492 0.363149 42.9413 7.05499C49.6226 13.7517 49.6226 24.593 42.9413 31.2897Z" fill="white"/>
<path d="M41.5152 8.48022L40.0898 9.90556C45.1986 15.0268 45.1986 23.3167 40.0898 28.4379L41.5152 29.8633C47.4116 23.955 47.4116 14.3885 41.5152 8.48022Z" fill="white"/>
</g>
<defs>
<clipPath id="clip0">
<rect width="50" height="50" fill="white"/>
</clipPath>
</defs>
</svg>
